<svg width="296" height="78" viewBox="0 0 296 78" fill="none" xmlns="http://www.w3.org/2000/svg">
<path d="M25.216 62.896C20.6933 62.896 16.6827 61.936 13.184 60.016C9.728 58.096 7.04 55.3867 5.12 51.888C3.2 48.3467 2.24 44.2507 2.24 39.6C2.24 34.992 3.22133 30.9387 5.184 27.44C7.18933 23.8987 9.94133 21.168 13.44 19.248C16.9813 17.2853 20.992 16.304 25.472 16.304C29.7813 16.304 33.6427 17.1787 37.056 18.928L36.16 26.736C34.3253 25.9253 32.5547 25.3067 30.848 24.88C29.184 24.4107 27.3707 24.176 25.408 24.176C20.8427 24.176 17.3227 25.584 14.848 28.4C12.416 31.216 11.2 34.9493 11.2 39.6C11.2 44.2507 12.3947 47.984 14.784 50.8C17.216 53.616 20.6933 55.024 25.216 55.024C27.2213 55.024 29.056 54.8107 30.72 54.384C32.4267 53.9573 34.24 53.3173 36.16 52.464L37.056 60.272C33.344 62.0213 29.3973 62.896 25.216 62.896ZM124.109 62L120.269 31.984L108.813 52.592L97.293 32.048L93.453 62H84.941L91.149 17.2H97.869L108.813 37.616L119.693 17.2H126.413L132.621 62H124.109ZM140.053 17.2H155.989C166.613 17.2 171.925 22.0213 171.925 31.664C171.925 36.656 170.581 40.368 167.893 42.8C165.205 45.232 161.301 46.448 156.181 46.448H148.245V62H140.053V17.2ZM155.221 39.6C158.037 39.6 160.128 38.96 161.493 37.68C162.901 36.4 163.605 34.4373 163.605 31.792C163.605 29.1467 162.901 27.2053 161.493 25.968C160.085 24.688 157.93 24.048 155.029 24.048H148.245V39.6H155.221ZM178.178 17.2H186.37V54.704H204.802V62H178.178V17.2ZM210.178 17.2H218.37V62H210.178V17.2ZM241.233 62.896C238.715 62.896 236.006 62.5547 233.105 61.872C230.246 61.1893 228.006 60.4427 226.385 59.632L227.345 50.928C232.977 53.6587 237.926 55.024 242.193 55.024C244.454 55.024 246.225 54.5973 247.505 53.744C248.785 52.848 249.425 51.5467 249.425 49.84C249.425 48.56 249.062 47.5147 248.337 46.704C247.654 45.8507 246.651 45.1467 245.329 44.592C244.006 43.9947 241.894 43.184 238.993 42.16C236.262 41.2213 234.001 40.24 232.209 39.216C230.417 38.1493 228.987 36.8053 227.921 35.184C226.897 33.52 226.385 31.4933 226.385 29.104C226.385 25.264 227.793 22.1707 230.609 19.824C233.425 17.4773 237.457 16.304 242.705 16.304C245.179 16.304 247.633 16.5813 250.065 17.136C252.539 17.6907 254.801 18.3733 256.849 19.184L256.017 27.568C253.371 26.416 250.939 25.5627 248.721 25.008C246.545 24.4107 244.369 24.112 242.193 24.112C239.761 24.112 237.905 24.5173 236.625 25.328C235.345 26.1387 234.705 27.312 234.705 28.848C234.705 30.0427 235.046 31.024 235.729 31.792C236.411 32.56 237.329 33.2 238.481 33.712C239.675 34.224 241.425 34.8427 243.729 35.568C248.891 37.1893 252.646 39.0667 254.993 41.2C257.382 43.2907 258.576 46.1707 258.576 49.84C258.576 53.3387 257.361 56.3893 254.929 58.992C252.497 61.5947 247.931 62.896 241.233 62.896ZM274.07 25.136H261.398V17.2H294.934V25.136H282.262V62H274.07V25.136Z" fill="#F9F8F1"/>
<path d="M48.8222 58.25L61.5 28.4839L74.1778 58.25H48.8222Z" stroke="#F9F8F1" stroke-width="9"/>
</svg>
